<svg xmlns="http://www.w3.org/2000/svg" xmlns:xlink="http://www.w3.org/1999/xlink" contentStyleType="text/css" data-diagram-type="STATE" height="701px" preserveAspectRatio="none" style="width:528px;height:701px;background:#FFFFFF;" version="1.1" viewBox="0 0 528 701" width="528px" zoomAndPan="magnify"><?plantuml 1.2026.4?><defs/><g><g class="title" data-source-line="1"><text fill="#000000" font-family="sans-serif" font-size="14" font-weight="700" lengthAdjust="spacing" textLength="263.7031" x="128.7551" y="24.5332">Ciclo de vida de un Perfil de Autonomia</text></g><g class="start_entity" data-qualified-name=".start." data-source-line="3" id="ent0001"><ellipse cx="146.5" cy="54.6094" fill="#222222" rx="10" ry="10" style="stroke:#222222;stroke-width:1;"/></g><g class="entity" data-qualified-name="ESCANEANDO" data-source-line="3" id="ent0002"><rect fill="#F1F1F1" height="50" rx="12.5" ry="12.5" style="stroke:#181818;stroke-width:0.5;" width="118.0205" x="87.5" y="125.6094"/><line style="stroke:#181818;stroke-width:0.5;" x1="87.5" x2="205.5205" y1="153.2188" y2="153.2188"/><text fill="#000000" font-family="sans-serif" font-size="14" lengthAdjust="spacing" textLength="98.0205" x="97.5" y="145.1426">ESCANEANDO</text></g><g class="entity" data-qualified-name="CLASIFICADO" data-source-line="5" id="ent0004"><rect fill="#F1F1F1" height="50" rx="12.5" ry="12.5" style="stroke:#181818;stroke-width:0.5;" width="113.3516" x="7" y="253.6094"/><line style="stroke:#181818;stroke-width:0.5;" x1="7" x2="120.3516" y1="281.2188" y2="281.2188"/><text fill="#000000" font-family="sans-serif" font-size="14" lengthAdjust="spacing" textLength="93.3516" x="17" y="273.1426">CLASIFICADO</text></g><g class="entity" data-qualified-name="DESCONOCIDO" data-source-line="6" id="ent0006"><rect fill="#F1F1F1" height="50" rx="12.5" ry="12.5" style="stroke:#181818;stroke-width:0.5;" width="125.7861" x="164.5" y="253.6094"/><line style="stroke:#181818;stroke-width:0.5;" x1="164.5" x2="290.2861" y1="281.2188" y2="281.2188"/><text fill="#000000" font-family="sans-serif" font-size="14" lengthAdjust="spacing" textLength="105.7861" x="174.5" y="273.1426">DESCONOCIDO</text></g><g class="entity" data-qualified-name="VALIDACIONES_PROPUESTAS" data-source-line="8" id="ent0008"><rect fill="#F1F1F1" height="50" rx="12.5" ry="12.5" style="stroke:#181818;stroke-width:0.5;" width="226.9512" x="31" y="381.6094"/><line style="stroke:#181818;stroke-width:0.5;" x1="31" x2="257.9512" y1="409.2188" y2="409.2188"/><text fill="#000000" font-family="sans-serif" font-size="14" lengthAdjust="spacing" textLength="206.9512" x="41" y="401.1426">VALIDACIONES_PROPUESTAS</text></g><g class="entity" data-qualified-name="REVISADO" data-source-line="11" id="ent0011"><rect fill="#F1F1F1" height="50" rx="12.5" ry="12.5" style="stroke:#181818;stroke-width:0.5;" width="92.3516" x="31.5" y="509.6094"/><line style="stroke:#181818;stroke-width:0.5;" x1="31.5" x2="123.8516" y1="537.2188" y2="537.2188"/><text fill="#000000" font-family="sans-serif" font-size="14" lengthAdjust="spacing" textLength="72.3516" x="41.5" y="529.1426">REVISADO</text></g><g class="entity" data-qualified-name="ACTUALIZADO" data-source-line="12" id="ent0013"><rect fill="#F1F1F1" height="50" rx="12.5" ry="12.5" style="stroke:#181818;stroke-width:0.5;" width="118.0137" x="127.5" y="637.6094"/><line style="stroke:#181818;stroke-width:0.5;" x1="127.5" x2="245.5137" y1="665.2188" y2="665.2188"/><text fill="#000000" font-family="sans-serif" font-size="14" lengthAdjust="spacing" textLength="98.0137" x="137.5" y="657.1426">ACTUALIZADO</text></g><g class="end_entity" data-qualified-name=".end." data-source-line="20" id="ent0016"><ellipse cx="56.5" cy="662.6094" fill="none" rx="11" ry="11" style="stroke:#222222;stroke-width:1;"/><ellipse cx="56.5" cy="662.6094" fill="#222222" rx="6" ry="6" style="stroke:#222222;stroke-width:1;"/></g><g class="entity" data-qualified-name="GMN18" data-source-line="16" id="ent0019"><path d="M293.5,385.1094 L293.5,402.6094 L258.07,406.6094 L293.5,410.6094 L293.5,427.8125 A0,0 0 0 0 293.5,427.8125 L513.2134,427.8125 A0,0 0 0 0 513.2134,427.8125 L513.2134,395.1094 L503.2134,385.1094 L293.5,385.1094 A0,0 0 0 0 293.5,385.1094" fill="#FEFFDD" style="stroke:#181818;stroke-width:0.5;"/><path d="M503.2134,385.1094 L503.2134,395.1094 L513.2134,395.1094 L503.2134,385.1094" fill="#FEFFDD" style="stroke:#181818;stroke-width:0.5;"/><text fill="#000000" font-family="sans-serif" font-size="13" lengthAdjust="spacing" textLength="198.7134" x="299.5" y="403.6045">El MVP no crea reglas ejecutables</text><text fill="#000000" font-family="sans-serif" font-size="13" lengthAdjust="spacing" textLength="142.3589" x="299.5" y="419.9561">ni aprobaciones runtime.</text></g><!--link *start* to ESCANEANDO--><g class="link" data-entity-1="ent0001" data-entity-2="ent0002" data-link-type="dependency" data-source-line="3" id="lnk3"><path d="M146.5,64.6194 C146.5,78.4994 146.5,100.5794 146.5,120.4494" fill="none" id="*start*-to-ESCANEANDO" style="stroke:#181818;stroke-width:1;"/><polygon fill="#181818" points="146.5,125.4494,150.5,116.4494,146.5,120.4494,142.5,116.4494,146.5,125.4494" style="stroke:#181818;stroke-width:1;stroke-linejoin:miter;stroke-miterlimit:10;"/></g><!--link ESCANEANDO to CLASIFICADO--><g class="link" data-entity-1="ent0002" data-entity-2="ent0004" data-link-type="dependency" data-source-line="5" id="lnk5"><path d="M90.76,175.6994 C79.06,183.4794 68.24,193.3494 61.5,205.6094 C53.55,220.0794 53.4532,233.8468 56.0732,248.5568" fill="none" id="ESCANEANDO-to-CLASIFICADO" style="stroke:#181818;stroke-width:1;"/><polygon fill="#181818" points="56.95,253.4794,59.3099,243.9174,56.0732,248.5568,51.4338,245.3202,56.95,253.4794" style="stroke:#181818;stroke-width:1;stroke-linejoin:miter;stroke-miterlimit:10;"/><text fill="#000000" font-family="sans-serif" font-size="13" lengthAdjust="spacing" textLength="116.3271" x="62.5" y="220.1045">riesgosDetectados()</text></g><!--link ESCANEANDO to DESCONOCIDO--><g class="link" data-entity-1="ent0002" data-entity-2="ent0006" data-link-type="dependency" data-source-line="6" id="lnk7"><path d="M166.04,175.8094 C173.1,184.9394 180.94,195.5594 187.5,205.6094 C197.58,221.0594 205.3226,234.7994 212.8426,249.0194" fill="none" id="ESCANEANDO-to-DESCONOCIDO" style="stroke:#181818;stroke-width:1;"/><polygon fill="#181818" points="215.18,253.4394,214.5086,243.6134,212.8426,249.0194,207.4366,247.3533,215.18,253.4394" style="stroke:#181818;stroke-width:1;stroke-linejoin:miter;stroke-miterlimit:10;"/><text fill="#000000" font-family="sans-serif" font-size="13" lengthAdjust="spacing" textLength="141.6226" x="199.5" y="220.1045">metadatosInsuficientes()</text></g><!--link CLASIFICADO to VALIDACIONES_PROPUESTAS--><g class="link" data-entity-1="ent0004" data-entity-2="ent0008" data-link-type="dependency" data-source-line="8" id="lnk9"><path d="M55.48,303.7294 C52.08,318.4494 50.5,337.1394 58.5,351.6094 C65.24,363.7994 71.8415,370.8483 83.5115,378.5783" fill="none" id="CLASIFICADO-to-VALIDACIONES_PROPUESTAS" style="stroke:#181818;stroke-width:1;"/><polygon fill="#181818" points="87.68,381.3394,82.3856,373.0346,83.5115,378.5783,77.9678,379.7041,87.68,381.3394" style="stroke:#181818;stroke-width:1;stroke-linejoin:miter;stroke-miterlimit:10;"/><text fill="#000000" font-family="sans-serif" font-size="13" lengthAdjust="spacing" textLength="125.0044" x="59.5" y="348.1045">generarCheckpoints()</text></g><!--link DESCONOCIDO to VALIDACIONES_PROPUESTAS--><g class="link" data-entity-1="ent0006" data-entity-2="ent0008" data-link-type="dependency" data-source-line="9" id="lnk10"><path d="M216.38,303.6694 C209.36,318.0194 199.73,336.3394 189.5,351.6094 C182.64,361.8494 177.437,368.6172 169.717,377.6572" fill="none" id="DESCONOCIDO-to-VALIDACIONES_PROPUESTAS" style="stroke:#181818;stroke-width:1;"/><polygon fill="#181818" points="166.47,381.4594,175.3564,377.213,169.717,377.6572,169.2729,372.0178,166.47,381.4594" style="stroke:#181818;stroke-width:1;stroke-linejoin:miter;stroke-miterlimit:10;"/><text fill="#000000" font-family="sans-serif" font-size="13" lengthAdjust="spacing" textLength="153.188" x="201.5" y="348.1045">proponerRevisionManual()</text></g><!--link VALIDACIONES_PROPUESTAS to REVISADO--><g class="link" data-entity-1="ent0008" data-entity-2="ent0011" data-link-type="dependency" data-source-line="11" id="lnk12"><path d="M100.59,431.7494 C90.13,439.7794 80.32,449.7594 74.5,461.6094 C67.27,476.3194 67.3353,489.9101 69.9853,504.4801" fill="none" id="VALIDACIONES_PROPUESTAS-to-REVISADO" style="stroke:#181818;stroke-width:1;"/><polygon fill="#181818" points="70.88,509.3994,73.2049,499.8289,69.9853,504.4801,65.3341,501.2604,70.88,509.3994" style="stroke:#181818;stroke-width:1;stroke-linejoin:miter;stroke-miterlimit:10;"/><text fill="#000000" font-family="sans-serif" font-size="13" lengthAdjust="spacing" textLength="110.5254" x="75.5" y="476.1045">revisarEnSecurity()</text></g><!--link REVISADO to ACTUALIZADO--><g class="link" data-entity-1="ent0011" data-entity-2="ent0013" data-link-type="dependency" data-source-line="12" id="lnk14"><path d="M85.36,559.7094 C91.02,574.5994 99.74,593.4794 111.5,607.6094 C120.94,618.9594 129.1858,626.2493 141.1258,634.6193" fill="none" id="REVISADO-to-ACTUALIZADO" style="stroke:#181818;stroke-width:1;"/><polygon fill="#181818" points="145.22,637.4894,140.1465,629.0479,141.1258,634.6193,135.5543,635.5986,145.22,637.4894" style="stroke:#181818;stroke-width:1;stroke-linejoin:miter;stroke-miterlimit:10;"/><text fill="#000000" font-family="sans-serif" font-size="13" lengthAdjust="spacing" textLength="73.6963" x="112.5" y="604.1045">reescanear()</text></g><!--link ACTUALIZADO to VALIDACIONES_PROPUESTAS--><g class="link" data-entity-1="ent0013" data-entity-2="ent0008" data-link-type="dependency" data-source-line="13" id="lnk15"><path d="M192.44,637.5894 C200.79,599.0794 212.64,521.7394 190.5,461.6094 C186.46,450.6294 182.4169,444.083 174.7369,435.513" fill="none" id="ACTUALIZADO-to-VALIDACIONES_PROPUESTAS" style="stroke:#181818;stroke-width:1;"/><polygon fill="#181818" points="171.4,431.7894,174.4275,441.1614,174.7369,435.513,180.3853,435.8223,171.4,431.7894" style="stroke:#181818;stroke-width:1;stroke-linejoin:miter;stroke-miterlimit:10;"/><text fill="#000000" font-family="sans-serif" font-size="13" lengthAdjust="spacing" textLength="103.3018" x="204.5" y="540.1045">reemplazarPerfil()</text></g><!--link REVISADO to *end*--><g class="link" data-entity-1="ent0011" data-entity-2="ent0016" data-link-type="dependency" data-source-line="20" id="lnk17"><path d="M73.45,559.8994 C68.83,587.6494 62.302,626.8174 59.012,646.5574" fill="none" id="REVISADO-to-*end*" style="stroke:#181818;stroke-width:1;"/><polygon fill="#181818" points="58.19,651.4894,63.6152,643.2694,59.012,646.5574,55.724,641.9542,58.19,651.4894" style="stroke:#181818;stroke-width:1;stroke-linejoin:miter;stroke-miterlimit:10;"/></g><?plantuml-src VPBBJiCm44Nt_efP0bBv01P8bXEaI6qIrMqN88G6PveQ73kodKhmzTZbLP3QbJsQU-uyxAYZ8H1Q6GSTmLvtcC_9Gaj-gqqE-1ITTOD6nXwk7c4skuLI2bwNl2uQndxlXvIOSrdTLOAd-0Qyfj2xK50a5R5puUBoFr2akAaRKHs0WP8CemkL3TDMAqqsKgROiN7cDdnU5LnKJLtAftRPjEjIhhXC7ZrPykZ5ZjJhwBIDcJykSnuVlHjTSbZINWVjx0BjX2QtS8h9VijoKycleJE8lhIIrEHrV4liJpfhkLYjazNzjvo2Galea-uuTRxDX0sZmNVqdq-L6xGkKjfvlulWjgTOLXfOR5gm3fGdJ4QzmG3qahgD-6meCAi1qngUKQNvAO2VRDG3NJEo7UGYxEz0wL-m3m00?></g></svg>