<svg xmlns="http://www.w3.org/2000/svg" xmlns:xlink="http://www.w3.org/1999/xlink" contentStyleType="text/css" data-diagram-type="STATE" height="309px" preserveAspectRatio="none" style="width:3784px;height:309px;background:#FFFFFF;" version="1.1" viewBox="0 0 3784 309" width="3784px" zoomAndPan="magnify"><?plantuml 1.2026.4?><defs/><g><g class="entity" data-qualified-name="MISION_GUARDARRAIL" data-source-line="12" id="ent0001"><path d="M439.5,32 L1643.5,32 A12.5,12.5 0 0 1 1656,44.5 L1656,59.6094 L427,59.6094 L427,44.5 A12.5,12.5 0 0 1 439.5,32" fill="#F1F1F1"/><rect fill="none" height="125.4375" rx="12.5" ry="12.5" style="stroke:#181818;stroke-width:0.5;" width="1229" x="427" y="32"/><line style="stroke:#181818;stroke-width:0.5;" x1="427" x2="1656" y1="59.6094" y2="59.6094"/><text fill="#000000" font-family="sans-serif" font-size="14" lengthAdjust="spacing" textLength="158.6963" x="962.1519" y="51.5332">MISION_GUARDARRAIL</text><g class="entity" data-qualified-name="MISION_GUARDARRAIL.CREDENCIAL_GR" data-source-line="14" id="ent0002"><rect fill="#F1F1F1" height="55.2188" rx="12.5" ry="12.5" style="stroke:#181818;stroke-width:0.5;" width="160.8545" x="495" y="80.6094"/><line style="stroke:#181818;stroke-width:0.5;" x1="495" x2="655.8545" y1="108.2188" y2="108.2188"/><text fill="#000000" font-family="sans-serif" font-size="14" lengthAdjust="spacing" textLength="119.0273" x="515.9136" y="100.1426">CREDENCIAL_GR</text><text fill="#000000" font-family="sans-serif" font-size="14" lengthAdjust="spacing" textLength="140.8545" x="500" y="127.752">Seleccionar credencial</text></g><g class="entity" data-qualified-name="MISION_GUARDARRAIL.PERMISOS_GR" data-source-line="16" id="ent0003"><rect fill="#F1F1F1" height="55.2188" rx="12.5" ry="12.5" style="stroke:#181818;stroke-width:0.5;" width="169.3857" x="802" y="80.6094"/><line style="stroke:#181818;stroke-width:0.5;" x1="802" x2="971.3857" y1="108.2188" y2="108.2188"/><text fill="#000000" font-family="sans-serif" font-size="14" lengthAdjust="spacing" textLength="102.6895" x="835.3481" y="100.1426">PERMISOS_GR</text><text fill="#000000" font-family="sans-serif" font-size="14" lengthAdjust="spacing" textLength="149.3857" x="807" y="127.752">Verificar permisos cloud</text></g><g class="entity" data-qualified-name="MISION_GUARDARRAIL.CONFIGURACION_GR" data-source-line="18" id="ent0004"><rect fill="#F1F1F1" height="72.8281" rx="12.5" ry="12.5" style="stroke:#181818;stroke-width:0.5;" width="167.7861" x="1117" y="71.6094"/><line style="stroke:#181818;stroke-width:0.5;" x1="1117" x2="1284.7861" y1="99.2188" y2="99.2188"/><text fill="#000000" font-family="sans-serif" font-size="14" lengthAdjust="spacing" textLength="147.7861" x="1127" y="91.1426">CONFIGURACION_GR</text><text fill="#000000" font-family="sans-serif" font-size="14" lengthAdjust="spacing" textLength="136.1787" x="1122" y="118.752">Configurar guardarrail</text><text fill="#000000" font-family="sans-serif" font-size="14" lengthAdjust="spacing" textLength="105.0479" x="1122" y="136.3613">o security setting</text></g><g class="entity" data-qualified-name="MISION_GUARDARRAIL.APLICACION_GR" data-source-line="20" id="ent0005"><rect fill="#F1F1F1" height="72.8281" rx="12.5" ry="12.5" style="stroke:#181818;stroke-width:0.5;" width="148.4268" x="1426" y="71.6094"/><line style="stroke:#181818;stroke-width:0.5;" x1="1426" x2="1574.4268" y1="99.2188" y2="99.2188"/><text fill="#000000" font-family="sans-serif" font-size="14" lengthAdjust="spacing" textLength="113.5859" x="1443.4204" y="91.1426">APLICACION_GR</text><text fill="#000000" font-family="sans-serif" font-size="14" lengthAdjust="spacing" textLength="108.917" x="1431" y="118.752">Aplicar y registrar</text><text fill="#000000" font-family="sans-serif" font-size="14" lengthAdjust="spacing" textLength="128.4268" x="1431" y="136.3613">resultado por agente</text></g><g class="start_entity" data-qualified-name="MISION_GUARDARRAIL..start.MISION_GUARDARRAIL" data-source-line="13" id="ent0027"><ellipse cx="448" cy="108.1094" fill="#222222" rx="10" ry="10" style="stroke:#222222;stroke-width:1;"/></g><g class="end_entity" data-qualified-name="MISION_GUARDARRAIL..end.MISION_GUARDARRAIL" data-source-line="21" id="ent0032"><ellipse cx="1622" cy="108.1094" fill="none" rx="11" ry="11" style="stroke:#222222;stroke-width:1;"/><ellipse cx="1622" cy="108.1094" fill="#222222" rx="6" ry="6" style="stroke:#222222;stroke-width:1;"/></g><!--link *start*MISION_GUARDARRAIL to CREDENCIAL_GR--><g class="link" data-entity-1="ent0027" data-entity-2="ent0002" data-link-type="dependency" data-source-line="13" id="lnk28"><path d="M458.03,108.1094 C466.46,108.1094 474.94,108.1094 489.8,108.1094" fill="none" id="*start*MISION_GUARDARRAIL-to-CREDENCIAL_GR" style="stroke:#181818;stroke-width:1;"/><polygon fill="#181818" points="494.8,108.1094,485.8,104.1094,489.8,108.1094,485.8,112.1094,494.8,108.1094" style="stroke:#181818;stroke-width:1;stroke-linejoin:miter;stroke-miterlimit:10;"/></g><!--link CREDENCIAL_GR to PERMISOS_GR--><g class="link" data-entity-1="ent0002" data-entity-2="ent0003" data-link-type="dependency" data-source-line="15" id="lnk29"><path d="M656.08,108.1094 C700.78,108.1094 751.53,108.1094 796.87,108.1094" fill="none" id="CREDENCIAL_GR-to-PERMISOS_GR" style="stroke:#181818;stroke-width:1;"/><polygon fill="#181818" points="801.87,108.1094,792.87,104.1094,796.87,108.1094,792.87,112.1094,801.87,108.1094" style="stroke:#181818;stroke-width:1;stroke-linejoin:miter;stroke-miterlimit:10;"/><text fill="#000000" font-family="sans-serif" font-size="13" lengthAdjust="spacing" textLength="108.3418" x="675" y="104.6045">verificarPermisos()</text></g><!--link PERMISOS_GR to CONFIGURACION_GR--><g class="link" data-entity-1="ent0003" data-entity-2="ent0004" data-link-type="dependency" data-source-line="17" id="lnk30"><path d="M971.24,108.1094 C1016.35,108.1094 1066.82,108.1094 1111.84,108.1094" fill="none" id="PERMISOS_GR-to-CONFIGURACION_GR" style="stroke:#181818;stroke-width:1;"/><polygon fill="#181818" points="1116.84,108.1094,1107.84,104.1094,1111.84,108.1094,1107.84,112.1094,1116.84,108.1094" style="stroke:#181818;stroke-width:1;stroke-linejoin:miter;stroke-miterlimit:10;"/><text fill="#000000" font-family="sans-serif" font-size="13" lengthAdjust="spacing" textLength="108.3735" x="990" y="104.6045">configurarControl()</text></g><!--link CONFIGURACION_GR to APLICACION_GR--><g class="link" data-entity-1="ent0004" data-entity-2="ent0005" data-link-type="dependency" data-source-line="19" id="lnk31"><path d="M1285.13,108.1094 C1329.23,108.1094 1377.94,108.1094 1420.51,108.1094" fill="none" id="CONFIGURACION_GR-to-APLICACION_GR" style="stroke:#181818;stroke-width:1;"/><polygon fill="#181818" points="1425.51,108.1094,1416.51,104.1094,1420.51,108.1094,1416.51,112.1094,1425.51,108.1094" style="stroke:#181818;stroke-width:1;stroke-linejoin:miter;stroke-miterlimit:10;"/><text fill="#000000" font-family="sans-serif" font-size="13" lengthAdjust="spacing" textLength="103.3271" x="1304" y="104.6045">aplicarAAgentes()</text></g><!--link APLICACION_GR to *end*MISION_GUARDARRAIL--><g class="link" data-entity-1="ent0005" data-entity-2="ent0032" data-link-type="dependency" data-source-line="21" id="lnk33"><path d="M1574.26,108.1094 C1588.71,108.1094 1597.07,108.1094 1605.78,108.1094" fill="none" id="APLICACION_GR-to-*end*MISION_GUARDARRAIL" style="stroke:#181818;stroke-width:1;"/><polygon fill="#181818" points="1610.78,108.1094,1601.78,104.1094,1605.78,108.1094,1601.78,112.1094,1610.78,108.1094" style="stroke:#181818;stroke-width:1;stroke-linejoin:miter;stroke-miterlimit:10;"/></g></g><g class="entity" data-qualified-name="MISION_PRIVILEGIO" data-source-line="24" id="ent0006"><path d="M2316.5,7 L3756.5,7 A12.5,12.5 0 0 1 3769,19.5 L3769,34.6094 L2304,34.6094 L2304,19.5 A12.5,12.5 0 0 1 2316.5,7" fill="#F1F1F1"/><rect fill="none" height="125.4375" rx="12.5" ry="12.5" style="stroke:#181818;stroke-width:0.5;" width="1465" x="2304" y="7"/><line style="stroke:#181818;stroke-width:0.5;" x1="2304" x2="3769" y1="34.6094" y2="34.6094"/><text fill="#000000" font-family="sans-serif" font-size="14" lengthAdjust="spacing" textLength="136.9238" x="2968.0381" y="26.5332">MISION_PRIVILEGIO</text><g class="entity" data-qualified-name="MISION_PRIVILEGIO.CREDENCIAL_MP" data-source-line="26" id="ent0007"><rect fill="#F1F1F1" height="55.2188" rx="12.5" ry="12.5" style="stroke:#181818;stroke-width:0.5;" width="160.8545" x="2372" y="55.6094"/><line style="stroke:#181818;stroke-width:0.5;" x1="2372" x2="2532.8545" y1="83.2188" y2="83.2188"/><text fill="#000000" font-family="sans-serif" font-size="14" lengthAdjust="spacing" textLength="119.0273" x="2392.9136" y="75.1426">CREDENCIAL_MP</text><text fill="#000000" font-family="sans-serif" font-size="14" lengthAdjust="spacing" textLength="140.8545" x="2377" y="102.752">Seleccionar credencial</text></g><g class="entity" data-qualified-name="MISION_PRIVILEGIO.PREFLIGHT_MP" data-source-line="28" id="ent0008"><rect fill="#F1F1F1" height="55.2188" rx="12.5" ry="12.5" style="stroke:#181818;stroke-width:0.5;" width="186.5303" x="2625" y="55.6094"/><line style="stroke:#181818;stroke-width:0.5;" x1="2625" x2="2811.5303" y1="83.2188" y2="83.2188"/><text fill="#000000" font-family="sans-serif" font-size="14" lengthAdjust="spacing" textLength="107.3516" x="2664.5894" y="75.1426">PREFLIGHT_MP</text><text fill="#000000" font-family="sans-serif" font-size="14" lengthAdjust="spacing" textLength="166.5303" x="2630" y="102.752">Resolver identidad runtime</text></g><g class="entity" data-qualified-name="MISION_PRIVILEGIO.BASELINE_MP" data-source-line="30" id="ent0009"><rect fill="#F1F1F1" height="72.8281" rx="12.5" ry="12.5" style="stroke:#181818;stroke-width:0.5;" width="171.7373" x="2953" y="46.6094"/><line style="stroke:#181818;stroke-width:0.5;" x1="2953" x2="3124.7373" y1="74.2188" y2="74.2188"/><text fill="#000000" font-family="sans-serif" font-size="14" lengthAdjust="spacing" textLength="97.2617" x="2990.2378" y="66.1426">BASELINE_MP</text><text fill="#000000" font-family="sans-serif" font-size="14" lengthAdjust="spacing" textLength="118.2686" x="2958" y="93.752">Permisos actuales,</text><text fill="#000000" font-family="sans-serif" font-size="14" lengthAdjust="spacing" textLength="151.7373" x="2958" y="111.3613">propuestos y removibles</text></g><g class="entity" data-qualified-name="MISION_PRIVILEGIO.REVISION_MP" data-source-line="32" id="ent0010"><rect fill="#F1F1F1" height="55.2188" rx="12.5" ry="12.5" style="stroke:#181818;stroke-width:0.5;" width="150.7373" x="3260" y="55.6094"/><line style="stroke:#181818;stroke-width:0.5;" x1="3260" x2="3410.7373" y1="83.2188" y2="83.2188"/><text fill="#000000" font-family="sans-serif" font-size="14" lengthAdjust="spacing" textLength="95.6895" x="3287.5239" y="75.1426">REVISION_MP</text><text fill="#000000" font-family="sans-serif" font-size="14" lengthAdjust="spacing" textLength="130.7373" x="3265" y="102.752">Aprobacion o dry-run</text></g><g class="entity" data-qualified-name="MISION_PRIVILEGIO.APLICACION_MP" data-source-line="34" id="ent0011"><rect fill="#F1F1F1" height="72.8281" rx="12.5" ry="12.5" style="stroke:#181818;stroke-width:0.5;" width="139.8408" x="3547" y="46.6094"/><line style="stroke:#181818;stroke-width:0.5;" x1="3547" x2="3686.8408" y1="74.2188" y2="74.2188"/><text fill="#000000" font-family="sans-serif" font-size="14" lengthAdjust="spacing" textLength="113.5859" x="3560.1274" y="66.1426">APLICACION_MP</text><text fill="#000000" font-family="sans-serif" font-size="14" lengthAdjust="spacing" textLength="112.8408" x="3552" y="93.752">Guardar apply run</text><text fill="#000000" font-family="sans-serif" font-size="14" lengthAdjust="spacing" textLength="119.8408" x="3552" y="111.3613">y rollback snapshot</text></g><g class="start_entity" data-qualified-name="MISION_PRIVILEGIO..start.MISION_PRIVILEGIO" data-source-line="25" id="ent0034"><ellipse cx="2325" cy="83.1094" fill="#222222" rx="10" ry="10" style="stroke:#222222;stroke-width:1;"/></g><g class="end_entity" data-qualified-name="MISION_PRIVILEGIO..end.MISION_PRIVILEGIO" data-source-line="35" id="ent0040"><ellipse cx="3735" cy="83.1094" fill="none" rx="11" ry="11" style="stroke:#222222;stroke-width:1;"/><ellipse cx="3735" cy="83.1094" fill="#222222" rx="6" ry="6" style="stroke:#222222;stroke-width:1;"/></g><!--link *start*MISION_PRIVILEGIO to CREDENCIAL_MP--><g class="link" data-entity-1="ent0034" data-entity-2="ent0007" data-link-type="dependency" data-source-line="25" id="lnk35"><path d="M2335.03,83.1094 C2343.46,83.1094 2351.94,83.1094 2366.8,83.1094" fill="none" id="*start*MISION_PRIVILEGIO-to-CREDENCIAL_MP" style="stroke:#181818;stroke-width:1;"/><polygon fill="#181818" points="2371.8,83.1094,2362.8,79.1094,2366.8,83.1094,2362.8,87.1094,2371.8,83.1094" style="stroke:#181818;stroke-width:1;stroke-linejoin:miter;stroke-miterlimit:10;"/></g><!--link CREDENCIAL_MP to PREFLIGHT_MP--><g class="link" data-entity-1="ent0007" data-entity-2="ent0008" data-link-type="dependency" data-source-line="27" id="lnk36"><path d="M2533.07,83.1094 C2561.91,83.1094 2589.75,83.1094 2619.64,83.1094" fill="none" id="CREDENCIAL_MP-to-PREFLIGHT_MP" style="stroke:#181818;stroke-width:1;"/><polygon fill="#181818" points="2624.64,83.1094,2615.64,79.1094,2619.64,83.1094,2615.64,87.1094,2624.64,83.1094" style="stroke:#181818;stroke-width:1;stroke-linejoin:miter;stroke-miterlimit:10;"/><text fill="#000000" font-family="sans-serif" font-size="13" lengthAdjust="spacing" textLength="54.9072" x="2552" y="79.6045">preflight()</text></g><!--link PREFLIGHT_MP to BASELINE_MP--><g class="link" data-entity-1="ent0008" data-entity-2="ent0009" data-link-type="dependency" data-source-line="29" id="lnk37"><path d="M2812.05,83.1094 C2856.5,83.1094 2904.41,83.1094 2947.85,83.1094" fill="none" id="PREFLIGHT_MP-to-BASELINE_MP" style="stroke:#181818;stroke-width:1;"/><polygon fill="#181818" points="2952.85,83.1094,2943.85,79.1094,2947.85,83.1094,2943.85,87.1094,2952.85,83.1094" style="stroke:#181818;stroke-width:1;stroke-linejoin:miter;stroke-miterlimit:10;"/><text fill="#000000" font-family="sans-serif" font-size="13" lengthAdjust="spacing" textLength="103.3335" x="2831" y="79.6045">generarBaseline()</text></g><!--link BASELINE_MP to REVISION_MP--><g class="link" data-entity-1="ent0009" data-entity-2="ent0010" data-link-type="dependency" data-source-line="31" id="lnk38"><path d="M3125.18,83.1094 C3167.65,83.1094 3213.55,83.1094 3254.52,83.1094" fill="none" id="BASELINE_MP-to-REVISION_MP" style="stroke:#181818;stroke-width:1;"/><polygon fill="#181818" points="3259.52,83.1094,3250.52,79.1094,3254.52,83.1094,3250.52,87.1094,3259.52,83.1094" style="stroke:#181818;stroke-width:1;stroke-linejoin:miter;stroke-miterlimit:10;"/><text fill="#000000" font-family="sans-serif" font-size="13" lengthAdjust="spacing" textLength="97.5317" x="3144" y="79.6045">revisarBaseline()</text></g><!--link REVISION_MP to APLICACION_MP--><g class="link" data-entity-1="ent0010" data-entity-2="ent0011" data-link-type="dependency" data-source-line="33" id="lnk39"><path d="M3411.03,83.1094 C3453.24,83.1094 3500.68,83.1094 3541.95,83.1094" fill="none" id="REVISION_MP-to-APLICACION_MP" style="stroke:#181818;stroke-width:1;"/><polygon fill="#181818" points="3546.95,83.1094,3537.95,79.1094,3541.95,83.1094,3537.95,87.1094,3546.95,83.1094" style="stroke:#181818;stroke-width:1;stroke-linejoin:miter;stroke-miterlimit:10;"/><text fill="#000000" font-family="sans-serif" font-size="13" lengthAdjust="spacing" textLength="98.249" x="3430" y="79.6045">aplicarCambios()</text></g><!--link APLICACION_MP to *end*MISION_PRIVILEGIO--><g class="link" data-entity-1="ent0011" data-entity-2="ent0040" data-link-type="dependency" data-source-line="35" id="lnk41"><path d="M3687.15,83.1094 C3701.51,83.1094 3709.93,83.1094 3718.69,83.1094" fill="none" id="APLICACION_MP-to-*end*MISION_PRIVILEGIO" style="stroke:#181818;stroke-width:1;"/><polygon fill="#181818" points="3723.69,83.1094,3714.69,79.1094,3718.69,83.1094,3714.69,87.1094,3723.69,83.1094" style="stroke:#181818;stroke-width:1;stroke-linejoin:miter;stroke-miterlimit:10;"/></g></g><g class="entity" data-qualified-name="MISION_AUTONOMIA" data-source-line="38" id="ent0012"><path d="M2439,170 L3634,170 A12.5,12.5 0 0 1 3646.5,182.5 L3646.5,197.6094 L2426.5,197.6094 L2426.5,182.5 A12.5,12.5 0 0 1 2439,170" fill="#F1F1F1"/><rect fill="none" height="125.4375" rx="12.5" ry="12.5" style="stroke:#181818;stroke-width:0.5;" width="1220" x="2426.5" y="170"/><line style="stroke:#181818;stroke-width:0.5;" x1="2426.5" x2="3646.5" y1="197.6094" y2="197.6094"/><text fill="#000000" font-family="sans-serif" font-size="14" lengthAdjust="spacing" textLength="142.3447" x="2965.3276" y="189.5332">MISION_AUTONOMIA</text><g class="entity" data-qualified-name="MISION_AUTONOMIA.ALCANCE_MA" data-source-line="40" id="ent0013"><rect fill="#F1F1F1" height="55.2188" rx="12.5" ry="12.5" style="stroke:#181818;stroke-width:0.5;" width="145.2959" x="2494.5" y="218.6094"/><line style="stroke:#181818;stroke-width:0.5;" x1="2494.5" x2="2639.7959" y1="246.2188" y2="246.2188"/><text fill="#000000" font-family="sans-serif" font-size="14" lengthAdjust="spacing" textLength="94.917" x="2519.6895" y="238.1426">ALCANCE_MA</text><text fill="#000000" font-family="sans-serif" font-size="14" lengthAdjust="spacing" textLength="125.2959" x="2499.5" y="265.752">Seleccionar alcance</text></g><g class="entity" data-qualified-name="MISION_AUTONOMIA.ESCANEO_MA" data-source-line="42" id="ent0014"><rect fill="#F1F1F1" height="55.2188" rx="12.5" ry="12.5" style="stroke:#181818;stroke-width:0.5;" width="186.5371" x="2791.5" y="218.6094"/><line style="stroke:#181818;stroke-width:0.5;" x1="2791.5" x2="2978.0371" y1="246.2188" y2="246.2188"/><text fill="#000000" font-family="sans-serif" font-size="14" lengthAdjust="spacing" textLength="97.248" x="2836.1445" y="238.1426">ESCANEO_MA</text><text fill="#000000" font-family="sans-serif" font-size="14" lengthAdjust="spacing" textLength="166.5371" x="2796.5" y="265.752">Detectar senales de riesgo</text></g><g class="entity" data-qualified-name="MISION_AUTONOMIA.PERFIL_MA" data-source-line="44" id="ent0015"><rect fill="#F1F1F1" height="72.8281" rx="12.5" ry="12.5" style="stroke:#181818;stroke-width:0.5;" width="122.7168" x="3099.5" y="209.6094"/><line style="stroke:#181818;stroke-width:0.5;" x1="3099.5" x2="3222.2168" y1="237.2188" y2="237.2188"/><text fill="#000000" font-family="sans-serif" font-size="14" lengthAdjust="spacing" textLength="77.7998" x="3121.9585" y="229.1426">PERFIL_MA</text><text fill="#000000" font-family="sans-serif" font-size="14" lengthAdjust="spacing" textLength="102.7168" x="3104.5" y="256.752">Nivel, confianza,</text><text fill="#000000" font-family="sans-serif" font-size="14" lengthAdjust="spacing" textLength="66.1514" x="3104.5" y="274.3613">evidencias</text></g><g class="entity" data-qualified-name="MISION_AUTONOMIA.VALIDACIONES_MA" data-source-line="46" id="ent0016"><rect fill="#F1F1F1" height="72.8281" rx="12.5" ry="12.5" style="stroke:#181818;stroke-width:0.5;" width="170.1787" x="3394.5" y="209.6094"/><line style="stroke:#181818;stroke-width:0.5;" x1="3394.5" x2="3564.6787" y1="237.2188" y2="237.2188"/><text fill="#000000" font-family="sans-serif" font-size="14" lengthAdjust="spacing" textLength="132.2617" x="3413.4585" y="229.1426">VALIDACIONES_MA</text><text fill="#000000" font-family="sans-serif" font-size="14" lengthAdjust="spacing" textLength="111.2686" x="3399.5" y="256.752">Checkpoints HITL</text><text fill="#000000" font-family="sans-serif" font-size="14" lengthAdjust="spacing" textLength="150.1787" x="3399.5" y="274.3613">sin enforcement runtime</text></g><g class="start_entity" data-qualified-name="MISION_AUTONOMIA..start.MISION_AUTONOMIA" data-source-line="39" id="ent0042"><ellipse cx="2447.5" cy="246.1094" fill="#222222" rx="10" ry="10" style="stroke:#222222;stroke-width:1;"/></g><g class="end_entity" data-qualified-name="MISION_AUTONOMIA..end.MISION_AUTONOMIA" data-source-line="47" id="ent0047"><ellipse cx="3612.5" cy="246.1094" fill="none" rx="11" ry="11" style="stroke:#222222;stroke-width:1;"/><ellipse cx="3612.5" cy="246.1094" fill="#222222" rx="6" ry="6" style="stroke:#222222;stroke-width:1;"/></g><!--link *start*MISION_AUTONOMIA to ALCANCE_MA--><g class="link" data-entity-1="ent0042" data-entity-2="ent0013" data-link-type="dependency" data-source-line="39" id="lnk43"><path d="M2457.72,246.1094 C2466.21,246.1094 2474.68,246.1094 2489.27,246.1094" fill="none" id="*start*MISION_AUTONOMIA-to-ALCANCE_MA" style="stroke:#181818;stroke-width:1;"/><polygon fill="#181818" points="2494.27,246.1094,2485.27,242.1094,2489.27,246.1094,2485.27,250.1094,2494.27,246.1094" style="stroke:#181818;stroke-width:1;stroke-linejoin:miter;stroke-miterlimit:10;"/></g><!--link ALCANCE_MA to ESCANEO_MA--><g class="link" data-entity-1="ent0013" data-entity-2="ent0014" data-link-type="dependency" data-source-line="41" id="lnk44"><path d="M2639.71,246.1094 C2684.59,246.1094 2737.88,246.1094 2786.27,246.1094" fill="none" id="ALCANCE_MA-to-ESCANEO_MA" style="stroke:#181818;stroke-width:1;"/><polygon fill="#181818" points="2791.27,246.1094,2782.27,242.1094,2786.27,246.1094,2782.27,250.1094,2791.27,246.1094" style="stroke:#181818;stroke-width:1;stroke-linejoin:miter;stroke-miterlimit:10;"/><text fill="#000000" font-family="sans-serif" font-size="13" lengthAdjust="spacing" textLength="114.8862" x="2658.5" y="242.6045">analizarMetadatos()</text></g><!--link ESCANEO_MA to PERFIL_MA--><g class="link" data-entity-1="ent0014" data-entity-2="ent0015" data-link-type="dependency" data-source-line="43" id="lnk45"><path d="M2978.76,246.1094 C3018.51,246.1094 3058.82,246.1094 3094.19,246.1094" fill="none" id="ESCANEO_MA-to-PERFIL_MA" style="stroke:#181818;stroke-width:1;"/><polygon fill="#181818" points="3099.19,246.1094,3090.19,242.1094,3094.19,246.1094,3090.19,250.1094,3099.19,246.1094" style="stroke:#181818;stroke-width:1;stroke-linejoin:miter;stroke-miterlimit:10;"/><text fill="#000000" font-family="sans-serif" font-size="13" lengthAdjust="spacing" textLength="83.0845" x="2997.5" y="242.6045">guardarPerfil()</text></g><!--link PERFIL_MA to VALIDACIONES_MA--><g class="link" data-entity-1="ent0015" data-entity-2="ent0016" data-link-type="dependency" data-source-line="45" id="lnk46"><path d="M3222.65,246.1094 C3271.38,246.1094 3335.37,246.1094 3389.44,246.1094" fill="none" id="PERFIL_MA-to-VALIDACIONES_MA" style="stroke:#181818;stroke-width:1;"/><polygon fill="#181818" points="3394.44,246.1094,3385.44,242.1094,3389.44,246.1094,3385.44,250.1094,3394.44,246.1094" style="stroke:#181818;stroke-width:1;stroke-linejoin:miter;stroke-miterlimit:10;"/><text fill="#000000" font-family="sans-serif" font-size="13" lengthAdjust="spacing" textLength="134.4116" x="3241.5" y="242.6045">proponerValidaciones()</text></g><!--link VALIDACIONES_MA to *end*MISION_AUTONOMIA--><g class="link" data-entity-1="ent0016" data-entity-2="ent0047" data-link-type="dependency" data-source-line="47" id="lnk48"><path d="M3564.58,246.1094 C3579.32,246.1094 3587.7,246.1094 3596.37,246.1094" fill="none" id="VALIDACIONES_MA-to-*end*MISION_AUTONOMIA" style="stroke:#181818;stroke-width:1;"/><polygon fill="#181818" points="3601.37,246.1094,3592.37,242.1094,3596.37,246.1094,3592.37,250.1094,3601.37,246.1094" style="stroke:#181818;stroke-width:1;stroke-linejoin:miter;stroke-miterlimit:10;"/></g></g><g class="start_entity" data-qualified-name=".start." data-source-line="3" id="ent0017"><ellipse cx="16" cy="217.5" fill="#222222" rx="10" ry="10" style="stroke:#222222;stroke-width:1;"/></g><g class="entity" data-qualified-name="SIN_CONEXION" data-source-line="3" id="ent0018"><rect fill="#F1F1F1" height="50" rx="12.5" ry="12.5" style="stroke:#181818;stroke-width:0.5;" width="125.7998" x="87" y="192.5"/><line style="stroke:#181818;stroke-width:0.5;" x1="87" x2="212.7998" y1="220.1094" y2="220.1094"/><text fill="#000000" font-family="sans-serif" font-size="14" lengthAdjust="spacing" textLength="105.7998" x="97" y="212.0332">SIN_CONEXION</text></g><g class="entity" data-qualified-name="PROVEEDOR_CONECTADO" data-source-line="5" id="ent0020"><rect fill="#F1F1F1" height="50" rx="12.5" ry="12.5" style="stroke:#181818;stroke-width:0.5;" width="206.6963" x="938" y="192.5"/><line style="stroke:#181818;stroke-width:0.5;" x1="938" x2="1144.6963" y1="220.1094" y2="220.1094"/><text fill="#000000" font-family="sans-serif" font-size="14" lengthAdjust="spacing" textLength="186.6963" x="948" y="212.0332">PROVEEDOR_CONECTADO</text></g><g class="entity" data-qualified-name="AGENTES_DESCUBIERTOS" data-source-line="6" id="ent0022"><rect fill="#F1F1F1" height="50" rx="12.5" ry="12.5" style="stroke:#181818;stroke-width:0.5;" width="205.1514" x="1863" y="127.5"/><line style="stroke:#181818;stroke-width:0.5;" x1="1863" x2="2068.1514" y1="155.1094" y2="155.1094"/><text fill="#000000" font-family="sans-serif" font-size="14" lengthAdjust="spacing" textLength="185.1514" x="1873" y="147.0332">AGENTES_DESCUBIERTOS</text></g><!--link *start* to SIN_CONEXION--><g class="link" data-entity-1="ent0017" data-entity-2="ent0018" data-link-type="dependency" data-source-line="3" id="lnk19"><path d="M26.07,217.5 C38.83,217.5 58.16,217.5 81.84,217.5" fill="none" id="*start*-to-SIN_CONEXION" style="stroke:#181818;stroke-width:1;"/><polygon fill="#181818" points="86.84,217.5,77.84,213.5,81.84,217.5,77.84,221.5,86.84,217.5" style="stroke:#181818;stroke-width:1;stroke-linejoin:miter;stroke-miterlimit:10;"/></g><!--link SIN_CONEXION to PROVEEDOR_CONECTADO--><g class="link" data-entity-1="ent0018" data-entity-2="ent0020" data-link-type="dependency" data-source-line="5" id="lnk21"><path d="M213.19,217.5 C364.27,217.5 746.81,217.5 932.84,217.5" fill="none" id="SIN_CONEXION-to-PROVEEDOR_CONECTADO" style="stroke:#181818;stroke-width:1;"/><polygon fill="#181818" points="937.84,217.5,928.84,213.5,932.84,217.5,928.84,221.5,937.84,217.5" style="stroke:#181818;stroke-width:1;stroke-linejoin:miter;stroke-miterlimit:10;"/><text fill="#000000" font-family="sans-serif" font-size="13" lengthAdjust="spacing" textLength="152.4644" x="244" y="213.9951">conectarProveedorCloud()</text></g><!--link PROVEEDOR_CONECTADO to AGENTES_DESCUBIERTOS--><g class="link" data-entity-1="ent0020" data-entity-2="ent0022" data-link-type="dependency" data-source-line="6" id="lnk23"><path d="M1145.04,218.83 C1296.29,219.46 1587.78,215.63 1833,182.5 C1842.86,181.17 1848.1584,180.386 1858.3384,178.446" fill="none" id="PROVEEDOR_CONECTADO-to-AGENTES_DESCUBIERTOS" style="stroke:#181818;stroke-width:1;"/><polygon fill="#181818" points="1863.25,177.51,1853.6603,175.2655,1858.3384,178.446,1855.1579,183.1241,1863.25,177.51" style="stroke:#181818;stroke-width:1;stroke-linejoin:miter;stroke-miterlimit:10;"/><text fill="#000000" font-family="sans-serif" font-size="13" lengthAdjust="spacing" textLength="109.8271" x="1705" y="178.9951">descubrirAgentes()</text></g><!--link AGENTES_DESCUBIERTOS to MISION_GUARDARRAIL--><g class="link" data-entity-1="ent0022" data-entity-2="ent0001" data-link-type="dependency" data-source-line="8" id="lnk24"><path d="M1862.92,155.05 C1852.81,155.23 1842.7,155.39 1833,155.5 C1767.67,156.25 1751.26,158.59 1686,155.5 C1676.19,155.04 1671.2927,154.801 1661.3427,154.261" fill="none" id="AGENTES_DESCUBIERTOS-to-MISION_GUARDARRAIL" style="stroke:#181818;stroke-width:1;"/><polygon fill="#181818" points="1656.35,153.99,1665.12,158.4718,1661.3427,154.261,1665.5535,150.4836,1656.35,153.99" style="stroke:#181818;stroke-width:1;stroke-linejoin:miter;stroke-miterlimit:10;"/><text fill="#000000" font-family="sans-serif" font-size="13" lengthAdjust="spacing" textLength="145.2026" x="1687" y="151.9951">iniciarMisionGuardarrail()</text></g><!--link MISION_GUARDARRAIL to AGENTES_DESCUBIERTOS--><g class="link" data-entity-1="ent0001" data-entity-2="ent0022" data-link-type="dependency" data-source-line="50" id="lnk49"><path d="M1656.26,119.09 C1716.04,123.19 1775.73,127.96 1833,133.5 C1842.64,134.43 1847.6985,134.9504 1857.7085,136.2004" fill="none" id="MISION_GUARDARRAIL-to-AGENTES_DESCUBIERTOS" style="stroke:#181818;stroke-width:1;"/><polygon fill="#181818" points="1862.67,136.82,1854.235,131.7356,1857.7085,136.2004,1853.2437,139.674,1862.67,136.82" style="stroke:#181818;stroke-width:1;stroke-linejoin:miter;stroke-miterlimit:10;"/><text fill="#000000" font-family="sans-serif" font-size="13" lengthAdjust="spacing" textLength="103.3018" x="1708" y="118.9951">completarMision()</text></g><!--link AGENTES_DESCUBIERTOS to MISION_PRIVILEGIO--><g class="link" data-entity-1="ent0022" data-entity-2="ent0006" data-link-type="dependency" data-source-line="9" id="lnk25"><path d="M2023,127.48 C2045.83,118.54 2072.72,109.46 2098,104.5 C2164.43,91.47 2229.0259,82.2578 2298.9659,75.1178" fill="none" id="AGENTES_DESCUBIERTOS-to-MISION_PRIVILEGIO" style="stroke:#181818;stroke-width:1;"/><polygon fill="#181818" points="2303.94,74.61,2294.5803,71.5447,2298.9659,75.1178,2295.3928,79.5034,2303.94,74.61" style="stroke:#181818;stroke-width:1;stroke-linejoin:miter;stroke-miterlimit:10;"/><text fill="#000000" font-family="sans-serif" font-size="13" lengthAdjust="spacing" textLength="174.8145" x="2099" y="76.9951">iniciarMisionMinimoPrivilegio()</text></g><!--link MISION_PRIVILEGIO to AGENTES_DESCUBIERTOS--><g class="link" data-entity-1="ent0006" data-entity-2="ent0022" data-link-type="dependency" data-source-line="51" id="lnk50"><path d="M2303.96,128.22 C2293.91,128.99 2283.92,129.75 2274,130.5 C2205.42,135.7 2133.1977,140.8694 2073.3077,145.0794" fill="none" id="MISION_PRIVILEGIO-to-AGENTES_DESCUBIERTOS" style="stroke:#181818;stroke-width:1;"/><polygon fill="#181818" points="2068.32,145.43,2077.5783,148.7891,2073.3077,145.0794,2077.0174,140.8087,2068.32,145.43" style="stroke:#181818;stroke-width:1;stroke-linejoin:miter;stroke-miterlimit:10;"/><text fill="#000000" font-family="sans-serif" font-size="13" lengthAdjust="spacing" textLength="103.3018" x="2134.5" y="126.9951">completarMision()</text></g><!--link AGENTES_DESCUBIERTOS to MISION_AUTONOMIA--><g class="link" data-entity-1="ent0022" data-entity-2="ent0012" data-link-type="dependency" data-source-line="10" id="lnk26"><path d="M2060.18,177.56 C2072.82,180.28 2085.68,182.7 2098,184.5 C2203.73,199.93 2311.8012,210.2762 2421.5112,217.6162" fill="none" id="AGENTES_DESCUBIERTOS-to-MISION_AUTONOMIA" style="stroke:#181818;stroke-width:1;"/><polygon fill="#181818" points="2426.5,217.95,2417.7871,213.3581,2421.5112,217.6162,2417.2531,221.3403,2426.5,217.95" style="stroke:#181818;stroke-width:1;stroke-linejoin:miter;stroke-miterlimit:10;"/><text fill="#000000" font-family="sans-serif" font-size="13" lengthAdjust="spacing" textLength="142.3271" x="2115" y="180.9951">iniciarMisionAutonomia()</text></g><!--link MISION_AUTONOMIA to AGENTES_DESCUBIERTOS--><g class="link" data-entity-1="ent0012" data-entity-2="ent0022" data-link-type="dependency" data-source-line="52" id="lnk51"><path d="M2426.36,275.61 C2315.73,270.58 2202.38,256.73 2098,228.5 C2061.22,218.55 2028.1321,198.5213 2002.7421,180.4313" fill="none" id="MISION_AUTONOMIA-to-AGENTES_DESCUBIERTOS" style="stroke:#181818;stroke-width:1;"/><polygon fill="#181818" points="1998.67,177.53,2003.6788,186.0101,2002.7421,180.4313,2008.3209,179.4947,1998.67,177.53" style="stroke:#181818;stroke-width:1;stroke-linejoin:miter;stroke-miterlimit:10;"/><text fill="#000000" font-family="sans-serif" font-size="13" lengthAdjust="spacing" textLength="103.3018" x="2134.5" y="224.9951">completarMision()</text></g><?plantuml-src dLNRZfim47tdA_pOLjqVw4CbBs6pbWX4a4ILcYfoO9ArrjZ8Df6oLV-zOyXb8MoxRLu2-CmPUywPiOIT8quJ8_PFZfJ2GE64La7m_TCFSdVtbUGisOHf4drZQH84hz_QvNcMhg9eacRjvt119odvGWgja8URkT47W5ARKEgc_F0n68Dx6ZgDaaMKRoPH7YxlMPGjqXnvIh15ipN2q3qe1nOPWb6evvYn77UrcIvfDg5PHbcC34A9Gd0p4nPFDMsuARanN4Xa-XlHF6Ch5aTJbWvvPlXMwRaH1o5XB_GxoEXoaIRfZD4X5ssSLheIt9_DEkvWx20_0uA_ioPX5asY96GqtaopTgNt1LFa8A4ea9uRKXWeGM56EG9jDOmoJ9dcNUW1ZDY90iK3KmchVT5zN1-rEgD8VOAHmcjy0sttcoOFRBhCQDYUA-iSiXFxnd0JQkMCbgSi8z3m0YNxgu1hfOc5eZ727V71EQ7sumojl-On2rznybhwpTEhhtpe44Kx53aIWp9RXrjOAmEsaOwNcjJQ4DuIZ4JxhAXNy6kWwYjNlIdgR3vKQZP_jwW8xHepUeZPz77HnTO6TjBt-5dD_d86LajKdWXaTQBa9J4DFbHmY_RizpIFOfP4NJJM0B0szzo250fEAVgOivi8Brp39TZFQrKRNJTW7Nxr9QxqGMnnvIRQPyoYLLV0bit0GTYRZ7qCHVejz_KYcfJcU8Sdke4DpD46dimHycehz8WtMj1fbY2ubaTVhBN2FoqbfdmcLl7QFcat4lgMCQuJekyB6eSq2R4Ej2Exl0uSmMN1LG53aAV0cKIJAErYkE9IlE3u0JGnTvS3za0JSEq0nyvINYoSn7X5WDth8VOqG1vOt4MUMXJbtWbv7HsNzKGSG7xk-f-h5uusG2qxBzi1sdElQCmcRV5mkhOCtZLulvWLdgDizRqqy2quV8BYkTP2EKiUsI9UAoiK0RNJfe0AlTxp-J3-bLOZG_aF5rUXgrfYWKz37hTts_x_4turoJz5_mO0?></g></svg>